<?xml version="1.0" standalone="no" ?>

<!DOCTYPE svg PUBLIC "-//W3C//DTD SVG 1.1//EN" "http://www.w3.org/Graphics/SVG/1.1/DTD/svg11.dtd">

<svg viewBox="0 0 512 512" version="1.1" xmlns="http://www.w3.org/2000/svg" xmlns:xlink="http://www.w3.org/1999/xlink" xml:space="preserve" x="0px" y="0px" width="512px" height="512px">

		<g>

			<path d="M 234.0881 124.5 L 355.8844 124.5 C 365.2346 124.5 373.5596 128.8985 378.9132 135.7336 L 433.9497 206.1899 C 435.2336 207.8403 436 209.9127 436 212.17 C 436 214.4244 435.2336 216.5016 433.9483 218.1528 L 378.9132 288.6049 C 373.5596 295.4414 365.2346 299.835 355.8844 299.835 L 234.0881 299.835 L 302.5719 212.17 L 234.0881 124.5 Z" fill="#0081c8" />
			<path d="M 302.5719 212.17 L 352.619 148.1099 C 354.5583 145.6283 355.7128 142.5047 355.7128 139.1139 C 355.7128 131.0447 349.1737 124.5035 341.1032 124.5035 L 234.0881 124.5 L 302.5719 212.17 Z" fill="#00406a" />
			<path d="M 277.9147 387.5 L 156.1184 387.5 C 146.7633 387.5 138.4404 383.1064 133.0932 376.2699 L 78.0496 305.8136 C 76.7643 304.1625 76 302.0894 76 299.835 C 76 297.5819 76.7671 295.4991 78.0581 293.8479 L 133.0932 223.4 C 138.4404 216.5649 146.7633 212.17 156.1184 212.17 L 277.9147 212.17 L 209.4267 299.835 L 277.9147 387.5 Z" fill="#ffd200" />
			<path d="M 209.4267 299.835 L 159.3887 363.8936 C 157.448 366.3731 156.29 369.4967 156.29 372.8918 C 156.29 380.9616 162.8319 387.5 170.896 387.5 L 277.9147 387.5 L 209.4267 299.835 Z" fill="#ce970f" />

		</g>

</svg>
